<svg width="48" height="48" viewBox="0 0 48 48" fill="none" xmlns="http://www.w3.org/2000/svg">
<g clip-path="url(#clip0_317_538)">
<path d="M47.032 29.395V17.636C47.032 14.519 43.565 11.993 40.448 11.993L5.64398 11.993C2.52798 11.993 -1.90735e-05 14.519 -1.90735e-05 17.636V29.395C-1.90735e-05 32.511 2.52698 35.039 5.64398 35.039L40.448 35.039C43.565 35.037 47.032 32.511 47.032 29.395ZM32.844 34.05H21.179L20.828 31.321H25.634L32.844 34.05ZM36.259 32.618C32.359 31.602 27.749 30.399 27.749 30.399L27.749 16.631L36.259 14.409C36.259 14.41 39.277 23.293 36.259 32.618ZM25.319 15.741L20.827 15.741L21.176 13.011L32.53 13.011L25.319 15.741ZM9.09398 13.011L19.453 13.011L19.11 15.741L10.914 15.741L9.09398 13.011ZM6.14998 14.568L9.48598 16.786V30.557L6.14998 32.776L6.14998 14.568ZM11.227 31.321L19.099 31.321L19.454 34.05L9.40598 34.05L11.227 31.321Z" fill="black"/>
</g>
<defs>
<clipPath id="clip0_317_538">
<rect width="47.032" height="47.032" fill="white" transform="translate(47.032) rotate(90)"/>
</clipPath>
</defs>
</svg>
