<svg width="0" height="0" class="hidden">
  <symbol xmlns="http://www.w3.org/2000/svg" viewBox="0 0 67 36" id="car">
    <path d="M19.1138 34.0951L19.1138 0.935933C19.1138 0.427593 18.7017 0.0155029 18.1934 0.0155029L8.71896 0.0155029C8.21062 0.0155029 7.79853 0.427593 7.79853 0.935933L7.79853 34.0951C7.79853 34.6034 8.21062 35.0155 8.71896 35.0155H18.1934C18.7017 35.0155 19.1138 34.6034 19.1138 34.0951Z" fill="#1A1A1A"></path>
    <path d="M54.8157 34.0951L54.8157 0.935933C54.8157 0.427593 54.4036 0.0155029 53.8952 0.0155029L44.4208 0.0155029C43.9125 0.0155029 43.5004 0.427593 43.5004 0.935933V34.0951C43.5004 34.6034 43.9125 35.0155 44.4208 35.0155H53.8952C54.4036 35.0155 54.8157 34.6034 54.8157 34.0951Z" fill="#1A1A1A"></path>
    <path d="M66.1505 17.4173C66.1552 19.5203 65.7446 21.6035 64.942 23.5473C64.1394 25.4911 62.9608 27.2573 61.4737 28.7443C59.9867 30.2314 58.2205 31.41 56.2767 32.2125C54.3329 33.0151 52.2497 33.4259 50.1467 33.4211L15.1606 33.4211C10.7284 33.4211 7.30424 33.4308 3.83418 31.2627C0.41564 29.1266 0.472729 21.8509 0.472729 17.4173C0.472729 12.9836 0.645399 6.10337 3.83418 3.57184C7.02296 1.04031 10.727 1.41352 15.1606 1.41352L50.1439 1.41352C52.2469 1.40874 54.3301 1.81942 56.2739 2.62199C58.2178 3.42457 59.9839 4.60324 61.4709 6.09028C62.958 7.57731 64.1366 9.34344 64.9392 11.2873C65.7418 13.2311 66.1525 15.3143 66.1477 17.4173H66.1505Z"></path>
    <path d="M63.5312 11.5621C63.1735 10.099 62.4332 8.75728 61.3862 7.67452C60.3392 6.59177 59.023 5.80682 57.5728 5.40027C58.1054 6.77226 58.9066 8.02411 59.9296 9.08222C60.9526 10.1403 62.1766 10.9834 63.5298 11.5621H63.5312Z" fill="#FFDD55"></path>
    <path d="M63.5312 23.2727C63.1735 24.7358 62.4332 26.0775 61.3862 27.1602C60.3392 28.243 59.023 29.0279 57.5728 29.4344C58.1055 28.0623 58.907 26.8105 59.9302 25.7524C60.9534 24.6943 62.1777 23.8512 63.5312 23.2727V23.2727Z" fill="#FFDD55"></path>
    <path d="M66.1352 16.7587C66.125 16.5182 66.1097 16.2792 66.0893 16.0415V16.0276C66.0679 15.7872 66.0419 15.5486 66.0113 15.3119L0.503412 15.3119C0.492272 15.816 0.48532 16.2866 0.483928 16.76L66.1366 16.76L66.1352 16.7587ZM66.1352 18.0759L0.47834 18.0759C0.47834 18.5424 0.478345 19.0158 0.488092 19.5241L66.0099 19.5241C66.0405 19.2874 66.0665 19.0488 66.0879 18.8084V18.7931C66.1083 18.5554 66.1236 18.3164 66.1338 18.0759H66.1352Z" fill="white"></path>
    <path d="M44.645 19.8736V14.961C44.645 9.53458 40.2461 5.13562 34.8197 5.13562L14.7359 5.13562C9.30954 5.13562 4.91059 9.53458 4.91059 14.961V19.8736C4.91059 25.3 9.30954 29.699 14.7359 29.699L34.8197 29.699C40.2461 29.699 44.645 25.3 44.645 19.8736Z" fill="#162D50"></path>
    <path d="M34.4354 21.1854V13.6479C34.4354 6.89107 28.9579 1.41357 22.201 1.41357H22.1996C15.4428 1.41357 9.9653 6.89107 9.9653 13.6479L9.9653 21.1854C9.9653 27.9422 15.4428 33.4197 22.1996 33.4197H22.201C28.9579 33.4197 34.4354 27.9422 34.4354 21.1854Z"></path>
    <path d="M34.4354 15.3119L9.9653 15.3119V16.76L34.4354 16.76V15.3119ZM34.4354 18.0746L9.9653 18.0746V19.5227L34.4354 19.5227V18.0746Z" fill="white"></path>
  </symbol>

  <symbol xmlns="http://www.w3.org/2000/svg" fill="#ffffff" viewBox="0 0 16 16" id="remove">
    <path d="M 6.570313 1 L 6.328125 2.289063 C 5.398438 2.5625 4.570313 3.046875 3.890625 3.695313 L 2.652344 3.261719 L 1.222656 5.738281 L 2.210938 6.585938 C 2.097656 7.042969 2 7.507813 2 8 C 2 8.492188 2.097656 8.957031 2.210938 9.414063 L 1.222656 10.261719 L 2.652344 12.738281 L 3.886719 12.300781 C 4.570313 12.957031 5.398438 13.4375 6.328125 13.714844 L 6.570313 15 L 9.429688 15 L 9.671875 13.714844 C 10.601563 13.4375 11.429688 12.953125 12.109375 12.300781 L 13.34375 12.738281 L 14.777344 10.261719 L 13.785156 9.414063 C 13.898438 8.957031 14 8.492188 14 8 C 14 7.507813 13.902344 7.042969 13.789063 6.585938 L 14.777344 5.738281 L 13.347656 3.261719 L 12.113281 3.695313 C 11.429688 3.042969 10.601563 2.5625 9.671875 2.289063 L 9.429688 1 Z M 7.398438 2 L 8.601563 2 L 8.796875 3.054688 L 9.117188 3.132813 C 10.109375 3.359375 10.984375 3.878906 11.65625 4.597656 L 11.878906 4.835938 L 12.894531 4.480469 L 13.496094 5.519531 L 12.683594 6.21875 L 12.78125 6.53125 C 12.921875 6.992188 13 7.488281 13 8 C 13 8.511719 12.921875 9.003906 12.78125 9.46875 L 12.683594 9.78125 L 13.496094 10.480469 L 12.894531 11.519531 L 11.878906 11.160156 L 11.65625 11.402344 C 10.984375 12.121094 10.109375 12.640625 9.117188 12.871094 L 8.796875 12.941406 L 8.601563 14 L 7.398438 14 L 7.203125 12.941406 L 6.882813 12.871094 C 5.890625 12.640625 5.015625 12.121094 4.34375 11.402344 L 4.117188 11.160156 L 3.101563 11.519531 L 2.503906 10.480469 L 3.316406 9.78125 L 3.21875 9.46875 C 3.078125 9.007813 3 8.511719 3 8 C 3 7.488281 3.078125 6.992188 3.21875 6.53125 L 3.316406 6.21875 L 2.503906 5.519531 L 3.101563 4.480469 L 4.121094 4.835938 L 4.34375 4.597656 C 5.015625 3.878906 5.890625 3.359375 6.882813 3.132813 L 7.203125 3.054688 Z M 8 5 C 6.347656 5 5 6.347656 5 8 C 5 9.652344 6.347656 11 8 11 C 9.652344 11 11 9.652344 11 8 C 11 6.347656 9.652344 5 8 5 Z M 8 6 C 9.109375 6 10 6.890625 10 8 C 10 9.109375 9.109375 10 8 10 C 6.890625 10 6 9.109375 6 8 C 6 6.890625 6.890625 6 8 6 Z"></path>
  </symbol>
</svg>