<svg width="60" height="60" viewBox="0 0 60 60" fill="none" xmlns="http://www.w3.org/2000/svg">
<g clip-path="url(#clip0_321_532)">
<path d="M29.042 9.82129C33.0779 9.85529 32.4227 11.5674 32.137 13.9724H10.3982V28.293H11.9703V19.9167C13.629 20.0967 14.9541 19.2484 16.6128 22.7908V25.3455H21.1325L22.8765 28.293H39.5306V18.9343C41.1863 14.8823 42.7729 16.052 44.5662 16.0356V28.293H46.2365L50.0193 31.8547H23.3678C21.3585 30.1179 18.7401 29.0544 15.8759 29.0544C11.8348 29.0544 8.28842 31.152 6.24696 34.3108V29.9143L8.28576 28.293V13.7021H5.16616C5.64622 10.3287 6.6819 10.1875 8.08924 9.82129H29.042ZM15.8759 30.8477C21.2153 30.8477 25.5539 35.1862 25.5539 40.5256C25.5539 45.865 21.2153 50.179 15.8759 50.179C10.5365 50.179 6.2224 45.865 6.2224 40.5256C6.2224 35.1862 10.5365 30.8477 15.8759 30.8477ZM52.8932 34.5569L53.7775 35.3911L54.8337 39.3467L54.6371 43.3259H48.9384C48.4554 39.5459 45.2348 36.6194 41.3237 36.6194C37.4126 36.6194 34.1674 39.5453 33.6844 43.3259H26.9785C27.2043 42.4285 27.347 41.4924 27.347 40.5256C27.347 38.337 26.7162 36.2961 25.6521 34.5569H52.8932ZM52.4511 34.9004H50.7316V38.3149H52.4511V34.9004ZM15.8759 36.2271C13.5103 36.2271 11.6018 38.16 11.6018 40.5256C11.6018 42.8912 13.5103 44.7998 15.8759 44.7998C18.2414 44.7998 20.1745 42.8912 20.1745 40.5256C20.1745 38.1596 18.2414 36.2271 15.8759 36.2271ZM41.3238 39.0515C44.2217 39.0515 46.5558 41.4105 46.5558 44.3083C46.5558 47.2063 44.2217 49.5405 41.3238 49.5405C38.4258 49.5405 36.0672 47.2063 36.0672 44.3083C36.0672 41.4105 38.4258 39.0515 41.3238 39.0515ZM53.188 40.28H51.7142V42.4663H53.188V40.28ZM41.3238 41.8027C39.948 41.8027 38.8183 42.9325 38.8183 44.3083C38.8183 45.6843 39.948 46.7896 41.3238 46.7896C42.6996 46.7896 43.8047 45.6843 43.8047 44.3083C43.8047 42.9325 42.6996 41.8027 41.3238 41.8027Z" fill="#1A1A1A"/>
</g>
<defs>
<clipPath id="clip0_321_532">
<rect width="60" height="60" fill="white" transform="matrix(-1 0 0 1 60 0)"/>
</clipPath>
</defs>
</svg>
