<svg width="6" height="49" viewBox="0 0 6 49" fill="none" xmlns="http://www.w3.org/2000/svg">
<path d="M5.418 0H0.535C0.239528 0 0 0.239528 0 0.535V47.574C0 47.8695 0.239528 48.109 0.535 48.109H5.418C5.71347 48.109 5.953 47.8695 5.953 47.574V0.535C5.953 0.239528 5.71347 0 5.418 0Z" fill="white"/>
<path d="M5.953 2L0 3.60001V9.763L5.953 8.16299V2ZM5.953 14.326L0 15.921V22.084L5.953 20.484V14.326ZM5.953 26.652L0 28.252V34.415L5.953 32.815V26.652ZM5.953 38.978L0 40.578V46.741L5.953 45.141V38.978Z" fill="#FF5555"/>
</svg>
